<?xml version="1.0" encoding="UTF-8"?>
<svg width="708.66138" height="708.66138" xmlns="http://www.w3.org/2000/svg" xmlns:svg="http://www.w3.org/2000/svg" xmlns:xlink="http://www.w3.org/1999/xlink">
 <defs>
  <linearGradient id="linearGradient899">
   <stop id="stop900" offset="0" stop-opacity="0" stop-color="#ffffff"/>
   <stop id="stop901" offset="1" stop-color="#ffffff"/>
  </linearGradient>
  <linearGradient xlink:href="#linearGradient899" id="linearGradient2313" x1="0.062678" y1="0.418598" x2="-0.324344" y2="1.425682"/>
  <linearGradient xlink:href="#linearGradient899" id="linearGradient2315" x1="0.053621" y1="Infinity" x2="-0.287337" y2="-Infinity"/>
  <linearGradient xlink:href="#linearGradient899" id="linearGradient2317" x1="0.053621" y1="Infinity" x2="-0.287337" y2="-Infinity"/>
  <linearGradient xlink:href="#linearGradient899" id="linearGradient2319" x1="0.053621" y1="Infinity" x2="-0.287337" y2="-Infinity"/>
 </defs>
 <metadata id="metadata7">image/svg+xml</metadata>
 <g>
  <title>Layer 1</title>
  <g transform="matrix(-0.134786,-0.603324,0.712838,0,115.9323,861.1654) " id="g4084"/>
  <g transform="matrix(-0.134786,-0.603324,0.712838,0,-474.53226,-459.553) " id="g8602"/>
  <path id="path8064" d="m467.49979,121.26672c-66.86887,0.6197 -130.53135,5.05532 -191.25391,11.59545c-10.24197,1.10266 -20.1135,10.20913 -20.00565,21.34508l3.2009,347.91763c0.11487,11.89868 10.12161,22.23279 22.40631,22.5954l383.30808,11.30163c12.01037,0.35401 21.29663,-9.71209 21.60608,-20.51434c0.00701,-0.24695 0.00231,-0.53613 0,-0.78381l13.60382,-359.9562c0.0086,-0.26022 0.0086,-0.52201 0,-0.78303c-0.11487,-11.92446 -10.39588,-21.46152 -21.60608,-22.57198c-74.53821,-7.39115 -144.37897,-10.76554 -211.25955,-10.14583z" stroke-miterlimit="4" stroke-linejoin="round" stroke-linecap="round" stroke-width="0.8" fill="#007f00"/>
  <path d="m283.83081,153.94156c117.41357,-16.45465 244.70258,-23.57071 388.82678,-13.3147c5.53986,0.39464 10.06769,4.47393 10.12006,10.03174l-13.33344,358.93713c0.05237,5.55783 -4.37622,10.03171 -9.93011,10.03171l-372.10727,0c-5.55393,0 -10.0669,-4.47388 -10.12006,-10.03171l-3.38687,-345.62323c-0.05237,-5.55703 4.43094,-9.26042 9.93091,-10.03094z" id="rect8030" stroke-miterlimit="4" stroke-linejoin="round" stroke-linecap="round" stroke-width="0.8" fill="#00ff00"/>
  <path id="path7978" d="m228.14609,183.3772c-0.54468,0.23443 -1.07375,0.50169 -1.58483,0.80021l-87.08236,7.20205c-17.33379,1.44728 -29.31607,12.35347 -35.48969,26.40744c-13.46629,30.65474 -55.50236,107.23022 -55.50236,107.23022c-5.33667,10.30838 -10.13646,22.55011 -9.69336,36.01016l3.60414,101.62863l-8.80248,0c-0.00156,0.26648 0.00312,0.53376 0.01563,0.80024c-13.69761,0.36416 -24.56943,12.0542 -24.3178,24.807l0.18912,9.6027c0.25163,12.7536 12.09794,24.35687 25.28056,24.00677l32.80925,0c1.63406,0 3.25014,-0.27039 4.78495,-0.80023c1.50824,0.2204 2.47804,1.60046 4.03316,1.60046c0.27117,-0.25635 0.53375,-0.52362 0.7846,-0.80023l158.33369,-5.60156c17.59871,0 31.72457,-14.4111 31.37838,-32.00904l-5.28431,-268.07557c-0.34695,-17.59871 -15.85759,-32.80925 -33.45629,-32.80925z" stroke-miterlimit="4" stroke-linejoin="round" stroke-linecap="round" stroke-width="0.8" fill="#007f00"/>
  <path d="m233.83391,198.58148l-87.2246,7.20203c-9.91215,0.82602 -19.78525,9.20729 -24.00676,18.40519c-14.99016,32.6592 -58.41646,108.03045 -58.41646,108.03045c-4.69977,8.74545 -8.13355,18.90533 -8.00226,28.80813l1.60045,128.83631c0,9.88092 7.72405,17.60498 17.60496,17.60498l158.44467,-5.6016c9.88092,0 17.60496,-7.72482 17.60496,-17.60495l0,-268.07557c0,-9.88092 -7.72404,-17.60497 -17.60496,-17.60497zm-200.0564,279.27872c-5.55234,0.1477 -9.60271,4.84512 -9.60271,10.40295l0,9.60269c0,5.55784 4.05115,9.74964 9.60271,9.60273l32.80925,-0.80023c-8.69776,-1.20112 -16.00451,-7.76703 -16.00451,-16.80475l0,-12.00339l-16.80474,0z" id="rect7967" stroke-miterlimit="4" stroke-linejoin="round" stroke-linecap="round" stroke-width="0.8" fill="#ffaad4"/>
  <path transform="rotate(0.19524480402469635 138.189727783212,350.7581176757865) " id="path3666" d="m234.472727,193.035422l-87.457025,7.354217c-9.938534,0.843848 -19.837581,9.403309 -24.071045,18.795925c-15.029497,33.352035 -58.571441,110.323037 -58.571441,110.323037c-4.712989,8.93076 -8.155854,19.306346 -8.023685,29.419311l1.604578,131.57063c0,10.089914 7.744837,17.979246 17.651938,17.978445l158.86668,-5.720038c9.907101,0 17.651948,-7.888531 17.651948,-17.978445l0,-273.764657c0,-10.090736 -7.744848,-17.978424 -17.651948,-17.978424zm-200.589674,285.204743c-5.567249,0.150658 -9.628263,4.947805 -9.628263,10.624208l0,9.806707c0,5.67557 4.061808,9.956554 9.628263,9.805907l32.896622,-0.8175c-8.720799,-1.22584 -16.046566,-7.931323 -16.046566,-17.160945l0,-12.258376l-16.850056,0z" stroke-miterlimit="4" stroke-linejoin="round" stroke-linecap="round" stroke-width="0.8" fill="#007f00"/>
  <path d="m56.98405,428.24622l0.80023,48.81378l25.60722,0c5.55391,0 10.40293,-4.84512 10.40293,-10.40296l0,-28.00787c0,-5.55783 -4.84902,-10.40295 -10.40293,-10.40295l-26.40745,0z" id="rect7980" stroke-miterlimit="4" stroke-linejoin="round" stroke-linecap="round" stroke-width="0.8" fill="#ffffff"/>
  <path d="m124.203,221.78803c-0.5017,0.85726 -1.19721,1.5223 -1.60045,2.40068c-14.99016,32.65919 -58.41646,108.03044 -58.41646,108.03044c-2.97194,5.53125 -5.02408,11.36572 -6.40181,17.60498l129.63654,0c6.19785,0 10.90465,-4.22229 11.20316,-10.40296l5.60159,-106.42999c0.29851,-6.18143 -4.20509,-11.20316 -10.40294,-11.20316l-69.61963,0l0,0.00001z" id="rect7989" stroke-miterlimit="4" stroke-linejoin="round" stroke-linecap="round" stroke-width="0.8" fill="#7f003f"/>
  <path d="m120.20187,228.18982c-16.27489,34.23074 -56.01578,104.02933 -56.01578,104.02933c-1.94665,3.62213 -3.45254,7.21454 -4.80136,11.20315l123.23475,0c5.55391,0 10.13566,-4.06363 10.40292,-9.60269l4.80136,-96.02707c0.26726,-5.53828 -4.0488,-9.60272 -9.6027,-9.60272l-68.01918,0l-0.00001,0z" id="rect7987" stroke-miterlimit="4" stroke-linejoin="round" stroke-linecap="round" stroke-width="0.8" fill="#ffffff"/>
  <path d="m197.02353,344.22253c-2.07324,3.41581 -5.38823,5.6016 -9.60271,5.6016l-129.63654,0c-0.80101,3.6268 -1.6489,7.56305 -1.60045,11.20315l0,1.60044l130.43678,-4.00113c5.5492,-0.13361 10.13566,-4.06443 10.40292,-9.6027l0,-4.80136z" id="rect7994" stroke-miterlimit="4" stroke-linejoin="round" stroke-linecap="round" stroke-width="0.8" fill="#7f003f"/>
  <path d="m191.90959,386.85956l30.94153,0c4.28558,0 7.735,3.45019 7.735,7.73498c0,4.28559 -3.44942,7.73578 -7.735,7.73578l-30.94153,0c-4.2848,0 -7.735,-3.45019 -7.735,-7.73578c0,-4.28479 3.4502,-7.73498 7.735,-7.73498z" id="rect7999" stroke-miterlimit="4" stroke-linejoin="round" stroke-linecap="round" stroke-width="0.8" fill="#7f003f"/>
  <path d="m52.1827,422.64465l0,5.60157l31.2088,0c5.55391,0 10.40293,4.84512 10.40293,10.40295l0,28.00787c0,5.55784 -4.84902,10.40296 -10.40293,10.40296l-31.2088,0l0,5.60156l39.21105,0c5.55391,0 10.40293,-4.84433 10.40293,-10.40292l0,-39.21106c0,-5.5578 -4.84902,-10.40293 -10.40293,-10.40293l-39.21105,0z" id="rect7982" stroke-miterlimit="4" stroke-linejoin="round" stroke-linecap="round" stroke-width="0.8" fill="#7f003f"/>
  <path id="path3661" d="m294.2879,173.06023c111.97217,-15.59346 233.36109,-22.33834 370.80689,-12.61763c5.28271,0.37355 9.60034,4.23948 9.65112,9.50659l-12.71686,340.1709c0.05078,5.26712 -4.17303,9.50735 -9.46905,9.50735l-354.86099,0c-5.29682,0 -9.60114,-4.24023 -9.65116,-9.50735l-3.22983,-327.55249c-0.05078,-5.26712 4.22464,-8.77671 9.46988,-9.50737z" stroke-miterlimit="4" stroke-linejoin="round" stroke-linecap="round" stroke-width="0.8" fill="#007f00"/>
  <path d="m429.08896,92.9517c-5.55393,0 -10.24976,4.05583 -10.40292,9.60271l-9.60273,374.50559c24.5163,11.12735 41.61173,35.35528 41.61173,64.018c0,8.36878 -2.13184,16.55317 -4.80133,24.00678l2.40066,0c5.5539,0 10.25055,-4.05579 10.40293,-9.60266l12.00338,-452.92771c0.15238,-5.54688 -4.0488,-9.60271 -9.60269,-9.60271l-32.00903,0z" id="rect8045" stroke-miterlimit="4" stroke-linejoin="round" stroke-linecap="round" stroke-width="0.8" fill="#00ff00"/>
  <path d="m437.89145,104.15486c-5.55393,0 -10.26932,4.04958 -10.40295,9.60271l-8.00226,356.10037c10.4639,5.77976 19.35391,13.63666 26.40747,23.20654l9.60269,-379.30691c0.1344,-5.55235 -4.84903,-9.60271 -10.40292,-9.60271l-7.20203,0z" id="rect8033" stroke-miterlimit="4" stroke-linejoin="round" stroke-linecap="round" stroke-width="0.8" fill="#007f00"/>
  <path d="m546.72211,84.94945c-4.40515,0 -8.25782,1.22769 -11.20313,3.2009c-2.94458,1.97399 -4.69275,4.97796 -4.80139,8.00225l-13.60382,379.30693c8.01166,-3.14852 16.48199,-4.80136 25.60724,-4.80136c28.29938,0 52.69293,16.7938 64.018,40.81153l-30.40857,-416.11732c-0.23596,-3.24467 -2.96722,-5.21709 -6.40179,-7.20203c-2.80389,-1.97321 -5.99853,-3.2009 -10.40295,-3.2009l-12.80359,0zm64.01806,476.93446c-2.89459,9.53314 -8.06164,18.24262 -14.40405,25.60718c8.80951,0 15.64423,-5.1944 15.20429,-11.20313l-0.80024,-14.40405z" id="path8043" stroke-miterlimit="4" stroke-linejoin="round" stroke-linecap="round" stroke-width="0.8" fill="#00ff00"/>
  <path d="m550.72327,99.35351c-2.77735,0 -5.32886,1.38945 -7.20203,3.2009c-1.87323,1.81145 -3.90735,4.42625 -4.00116,7.20203l-11.20312,351.29904c4.65283,-0.81741 9.51831,-2.40069 14.40405,-2.40069c14.77136,0 28.82141,4.38326 40.81146,11.20315l-15.20428,-360.90173c-0.12189,-2.97896 -1.05182,-4.5802 -3.20087,-6.4018c-1.75049,-1.81145 -3.62445,-3.2009 -6.4018,-3.2009l-8.00225,0z" id="rect8035" stroke-miterlimit="4" stroke-linejoin="round" stroke-linecap="round" stroke-width="0.8" fill="#007f00"/>
  <path d="m275.3331,541.37579a82.33672,82.33672 0 1 1 -164.67376,0a82.33672,82.33672 0 1 1 164.67376,0z" id="path7949" stroke-dashoffset="0" stroke-miterlimit="4" marker-end="none" marker-mid="none" marker-start="none" stroke-linejoin="round" stroke-linecap="round" stroke-width="0.845803" fill-rule="nonzero" fill="#7f003f"/>
  <path id="path7065" d="m263.7775,542.37341a70.78392,70.78392 0 1 1 -141.56724,0a70.78392,70.78392 0 1 1 141.56724,0z" stroke-miterlimit="4" stroke-linejoin="round" stroke-linecap="round" stroke-width="0.8" fill="#000000"/>
  <path d="m195.42308,503.46744c-19.68993,0 -36.01015,16.32022 -36.01015,36.01016c0,19.68988 16.32022,35.2099 36.01015,35.2099c19.68993,0 35.20993,-15.52002 35.20993,-35.2099c0,-19.68994 -15.52,-36.01016 -35.20993,-36.01016zm-2.40068,7.20202c16.92119,0 30.40858,13.4874 30.40858,30.40854c0,16.92121 -13.48739,31.2088 -30.40858,31.2088c-16.92117,0 -30.40857,-14.28759 -30.40857,-31.2088c0,-16.92114 13.4874,-30.40854 30.40857,-30.40854z" id="path7944" stroke-miterlimit="4" stroke-linejoin="round" stroke-linecap="round" stroke-width="0.8" fill="#7f007f"/>
  <path d="m223.646,541.37097a30.6544,30.6544 0 1 1 -61.31,0a30.6544,30.6544 0 1 1 61.31,0z" id="path7942" stroke-miterlimit="4" stroke-linejoin="round" stroke-linecap="round" stroke-width="0.8" fill="#7f7f7f"/>
  <path id="path7951" d="m462.41632,541.37579a82.33672,82.33672 0 1 1 -164.67297,0a82.33672,82.33672 0 1 1 164.67297,0z" stroke-miterlimit="4" stroke-linejoin="round" stroke-linecap="round" stroke-width="0.8" fill="#7f003f"/>
  <path d="m451.86383,541.37341a70.78392,70.78392 0 1 1 -141.56723,0a70.78392,70.78392 0 1 1 141.56723,0z" id="path7953" stroke-miterlimit="4" stroke-linejoin="round" stroke-linecap="round" stroke-width="0.8" fill="#000000"/>
  <path id="path7955" d="m382.50784,503.46744c-19.6907,0 -36.01013,16.32022 -36.01013,36.01016c0,19.68988 16.31943,35.2099 36.01013,35.2099c19.68994,0 35.20993,-15.52002 35.20993,-35.2099c0,-19.68994 -15.51999,-36.01016 -35.20993,-36.01016zm-2.40066,7.20202c16.92117,0 30.40857,13.4874 30.40857,30.40854c-0.0008,16.92121 -13.4874,31.2088 -30.40857,31.2088c-16.92118,0 -30.40857,-14.28759 -30.40857,-31.2088c-0.00079,-16.92114 13.48739,-30.40854 30.40857,-30.40854z" stroke-miterlimit="4" stroke-linejoin="round" stroke-linecap="round" stroke-width="0.8" fill="#7f007f"/>
  <path id="path7957" d="m410.72909,541.37109a30.65443,30.65443 0 1 1 -61.30868,0a30.65443,30.65443 0 1 1 61.30868,0z" stroke-miterlimit="4" stroke-linejoin="round" stroke-linecap="round" stroke-width="0.8" fill="#7f7f7f"/>
  <path d="m625.16296,541.37579a82.33672,82.33672 0 1 1 -164.67297,0a82.33672,82.33672 0 1 1 164.67297,0z" id="path7959" stroke-dashoffset="0" stroke-miterlimit="4" marker-end="none" marker-mid="none" marker-start="none" stroke-linejoin="round" stroke-linecap="round" stroke-width="0.845803" fill-rule="nonzero" fill="#7f003f"/>
  <path id="path7961" d="m613.61054,541.37341a70.78392,70.78392 0 1 1 -141.5673,0a70.78392,70.78392 0 1 1 141.5673,0z" stroke-miterlimit="4" stroke-linejoin="round" stroke-linecap="round" stroke-width="0.8" fill="#000000"/>
  <path d="m545.25452,503.46744c-19.68994,0 -36.00937,16.32022 -36.01017,36.01016c0,19.68988 16.32023,35.2099 36.01017,35.2099c19.69073,0 35.21069,-15.52002 35.2099,-35.2099c0,-19.68994 -15.51996,-36.01016 -35.2099,-36.01016zm-2.4007,7.20202c16.922,0 30.40857,13.4874 30.40857,30.40854c0,16.92121 -13.48737,31.2088 -30.40857,31.2088c-16.92035,0 -30.40857,-14.28759 -30.40857,-31.2088c0,-16.92114 13.48743,-30.40854 30.40857,-30.40854z" id="path7963" stroke-miterlimit="4" stroke-linejoin="round" stroke-linecap="round" stroke-width="0.8" fill="#7f007f"/>
  <path d="m573.47577,541.37109a30.65443,30.65443 0 1 1 -61.30872,0a30.65443,30.65443 0 1 1 61.30872,0z" id="path7965" stroke-miterlimit="4" stroke-linejoin="round" stroke-linecap="round" stroke-width="0.8" fill="#7f7f7f"/>
  <path d="m281.47852,645.47235" id="path3670" stroke-miterlimit="4" stroke-linejoin="round" stroke-linecap="round" stroke-width="0.8" fill="url(#linearGradient2315)"/>
  <path id="path3674" d="m471.74927,723.47235a62.15315,62.15315 0 1 1 -124.30612,0a62.15315,62.15315 0 1 1 124.30612,0z" stroke-miterlimit="4" stroke-linejoin="round" stroke-linecap="round" stroke-width="0.8" fill="url(#linearGradient2317)"/>
  <path d="m688.38153,645.47235a62.15315,62.15315 0 1 1 -124.30609,0a62.15315,62.15315 0 1 1 124.30609,0z" id="path3678" stroke-miterlimit="4" stroke-linejoin="round" stroke-linecap="round" stroke-width="0.8" fill="url(#linearGradient2319)" transform="rotate(121.53900146484375 626.22802734375,645.4719848632812) "/>
  <path id="path3686" d="m230.112027,199.185326l-85.620902,7.117473c-7.898381,0.642923 -16.617129,7.418583 -20.19362,15.025347c-14.944842,31.78439 -57.349844,103.597461 -57.349844,103.597461c-4.418136,8.023869 -7.385658,17.554821 -7.269699,26.097174l1.615488,123.367544c0,7.620594 5.113872,12.653387 12.923911,12.653387l155.894666,-5.535924c7.810029,0 12.923901,-5.03354 12.923901,-12.6526l0,-257.017262c0,-7.620594 -5.113872,-12.6526 -12.923901,-12.6526zm-196.281886,267.297096c-3.239656,0.083755 -5.654212,2.918133 -5.654212,6.326335l0,8.699032c0,3.407425 2.27968,5.623483 5.654212,5.535924l17.770383,-0.791187c-2.949374,-3.209247 -5.654212,-7.06755 -5.654212,-11.862199l0,-7.907903l-12.116172,0z" stroke-miterlimit="4" stroke-linejoin="round" stroke-linecap="round" stroke-width="0.8" fill="url(#linearGradient2313)"/>
 </g>
</svg>